<svg width="280" height="100" viewBox="0 0 280 100" xmlns="http://www.w3.org/2000/svg">
  <defs>
    <linearGradient id="logoGradient" x1="0%" y1="0%" x2="100%" y2="0%">
      <stop offset="0%" style="stop-color:#00BFFF;stop-opacity:1" />
      <stop offset="100%" style="stop-color:#0077B6;stop-opacity:1" />
    </linearGradient>
  </defs>
  <g stroke="url(#logoGradient)" fill="none">
    <path 
      d="M40 75 C 10 10, 100 10, 100 50 C 100 90, 40 95, 40 75 L 90 30 C 110 40, 115 75, 130 65 L 140 50 C 145 70, 155 70, 160 50 L 170 70 L 180 50 L 190 70 L 200 50 L 210 70 L 220 50 L 230 70 L 260 40" 
      stroke-width="5" />
    <path 
      d="M20 68 C 100 55, 180 75, 270 62" 
      stroke-width="4" />
  </g>
</svg>
